<?xml version="1.0" standalone="no"?>
<!DOCTYPE svg PUBLIC "-//W3C//DTD SVG 20010904//EN"
 "http://www.w3.org/TR/2001/REC-SVG-20010904/DTD/svg10.dtd">
<svg version="1.0" xmlns="http://www.w3.org/2000/svg"
 width="538.000000pt" height="542.000000pt" viewBox="0 0 538.000000 542.000000"
 preserveAspectRatio="xMidYMid meet">
<metadata>
Created by potrace 1.15, written by Peter Selinger 2001-2017
</metadata>
<g transform="translate(0.000000,542.000000) scale(0.100000,-0.100000)"
fill="#000000" stroke="none">
<path d="M2107 3782 l-557 -557 560 -560 560 -560 560 560 560 560 -557 557
c-307 307 -560 558 -563 558 -3 0 -256 -251 -563 -558z m1086 -40 l517 -517
-520 -520 -520 -520 -520 520 -520 520 517 517 c285 285 520 518 523 518 3 0
238 -233 523 -518z"/>
<path d="M2537 3651 c-147 -49 -262 -173 -297 -321 -60 -253 106 -499 363
-542 240 -40 468 129 509 376 16 97 -9 218 -61 295 -53 78 -121 137 -199 174
-58 27 -80 32 -162 34 -73 2 -109 -1 -153 -16z m243 -211 c44 -22 97 -80 116
-126 47 -112 -18 -262 -133 -311 -86 -36 -222 0 -278 72 -75 99 -71 217 10
313 66 79 189 101 285 52z"/>
<path d="M2567 3332 c-23 -25 -22 -29 19 -69 l36 -35 -38 -39 -38 -39 24 -25
24 -25 37 36 38 37 41 -37 42 -38 24 23 24 23 -40 41 -40 41 40 39 40 39 -25
25 -25 25 -40 -39 -40 -39 -38 37 c-21 20 -40 37 -43 37 -3 0 -13 -8 -22 -18z"/>
<path d="M328 1639 c-15 -8 -18 -25 -18 -94 0 -75 2 -86 20 -95 33 -18 73 -8
87 20 16 32 16 118 0 150 -14 28 -59 38 -89 19z"/>
<path d="M510 1545 l0 -105 39 0 c45 0 60 14 68 64 8 49 -17 86 -57 86 -27 0
-30 3 -30 30 0 17 -4 30 -10 30 -6 0 -10 -42 -10 -105z"/>
<path d="M1460 1545 l0 -105 43 0 c24 0 48 5 55 12 7 7 12 43 12 93 0 50 -5
86 -12 93 -7 7 -31 12 -55 12 l-43 0 0 -105z"/>
<path d="M1646 878 c-30 -131 -30 -128 -12 -128 7 0 16 14 20 30 5 26 10 30
40 30 29 0 34 -4 40 -30 3 -17 12 -30 20 -30 8 0 13 7 10 18 -6 27 -34 143
-45 185 -7 26 -15 37 -28 37 -15 0 -23 -20 -45 -112z"/>
<path d="M2280 871 c0 -74 4 -121 10 -121 6 0 10 39 10 97 0 53 3 94 6 90 3
-3 16 -45 28 -94 21 -82 24 -88 49 -91 l28 -3 -3 117 c-2 81 -7 119 -15 121
-9 3 -13 -22 -15 -94 l-3 -98 -25 95 c-22 82 -28 95 -47 98 -23 3 -23 2 -23
-117z"/>
<path d="M2518 983 c-27 -7 -41 -57 -36 -134 4 -80 18 -99 73 -99 52 0 65 24
65 123 0 77 -2 87 -22 101 -22 16 -46 18 -80 9z"/>
<path d="M3173 980 c-27 -11 -37 -57 -31 -142 5 -69 21 -88 73 -88 52 0 65 24
65 123 0 77 -2 87 -22 101 -25 18 -52 19 -85 6z"/>
<path d="M3597 878 c-32 -131 -31 -128 -13 -128 9 0 16 12 18 28 3 23 8 27 40
30 34 3 37 1 40 -25 2 -16 10 -29 19 -31 15 -3 15 5 -3 80 -34 147 -38 158
-56 158 -14 0 -23 -22 -45 -112z"/>
</g>
</svg>
